<svg xmlns="http://www.w3.org/2000/svg" viewBox="0 0 64 64"><defs><style>.cls-1{fill:#ffda00;}.cls-2{fill:#ccae00;}.cls-3{fill:#78909c;}.cls-4{fill:#ff00b7;}.cls-5{opacity:0.1;}</style></defs><title>Tool Pencil</title><g id="Layer_2" data-name="Layer 2"><g id="Layer_1-2" data-name="Layer 1"><path class="cls-1" d="M64,8.49a8.43,8.43,0,0,1-.64,3.24,8.64,8.64,0,0,1-1.85,2.76L18,58,0,64,6,46,49.51,2.49A8.49,8.49,0,0,1,64,8.49Z"/><polygon class="cls-2" points="18 58 0 64 6 46 18 58"/><polygon class="cls-3" points="6 62 0 64 2 58 6 62"/><path class="cls-4" d="M64,8.49a8.43,8.43,0,0,1-.64,3.24,8.64,8.64,0,0,1-1.85,2.76L54,22,42,10l7.51-7.51A8.49,8.49,0,0,1,64,8.49Z"/><polygon class="cls-5" points="46 14 10 50 0 64 14 54 50 18 46 14"/></g></g></svg>